<svg width="1600" height="900" viewBox="0 0 1600 900" fill="none" xmlns="http://www.w3.org/2000/svg">
  <defs>
    <linearGradient id="bg" x1="92" y1="76" x2="1450" y2="890" gradientUnits="userSpaceOnUse">
      <stop stop-color="#180B17"/>
      <stop offset="0.52" stop-color="#2B0F24"/>
      <stop offset="1" stop-color="#120910"/>
    </linearGradient>
    <linearGradient id="rose" x1="850" y1="170" x2="1408" y2="678" gradientUnits="userSpaceOnUse">
      <stop stop-color="#FF7CB2"/>
      <stop offset="1" stop-color="#FF4E7B"/>
    </linearGradient>
    <radialGradient id="glowA" cx="0" cy="0" r="1" gradientUnits="userSpaceOnUse" gradientTransform="translate(319 159) rotate(38.7446) scale(494.379 322.33)">
      <stop stop-color="#FF8CC2" stop-opacity="0.34"/>
      <stop offset="1" stop-color="#FF8CC2" stop-opacity="0"/>
    </radialGradient>
    <radialGradient id="glowB" cx="0" cy="0" r="1" gradientUnits="userSpaceOnUse" gradientTransform="translate(1288 680) rotate(134.436) scale(400.701 240.939)">
      <stop stop-color="#FFC6DA" stop-opacity="0.22"/>
      <stop offset="1" stop-color="#FFC6DA" stop-opacity="0"/>
    </radialGradient>
    <filter id="shadow" x="772" y="120" width="668" height="632" filterUnits="userSpaceOnUse" color-interpolation-filters="sRGB">
      <feOffset dy="20"/>
      <feGaussianBlur stdDeviation="24"/>
      <feColorMatrix type="matrix" values="0 0 0 0 0.0431373 0 0 0 0 0.0117647 0 0 0 0 0.0352941 0 0 0 0.52 0"/>
      <feBlend in2="SourceGraphic" result="shape"/>
    </filter>
  </defs>

  <rect width="1600" height="900" rx="40" fill="url(#bg)"/>
  <ellipse cx="310" cy="170" rx="260" ry="170" fill="url(#glowA)"/>
  <ellipse cx="1288" cy="681" rx="240" ry="144" fill="url(#glowB)"/>

  <text x="92" y="100" fill="#FFB8CF" font-family="Segoe UI, Arial, sans-serif" font-size="24" font-weight="700" letter-spacing="0.24em">INTERACTIVE WEB EXPERIENCE</text>
  <text x="92" y="220" fill="#FFF5FA" font-family="Segoe UI, Arial, sans-serif" font-size="84" font-weight="800">Valentine</text>
  <text x="92" y="300" fill="#FFF5FA" font-family="Segoe UI, Arial, sans-serif" font-size="84" font-weight="800">Interactive Experience</text>

  <text x="92" y="394" fill="#F2CBD9" font-family="Segoe UI, Arial, sans-serif" font-size="30" font-weight="600">Animated single-page website built with HTML, CSS, and vanilla JavaScript</text>
  <text x="92" y="438" fill="#F6DEE7" font-family="Segoe UI, Arial, sans-serif" font-size="28" font-weight="500">Choice-driven interaction, media transitions, and playful presentation design.</text>

  <g>
    <rect x="92" y="518" width="172" height="58" rx="29" fill="#311725" stroke="#673146"/>
    <text x="141" y="555" fill="#FFF7FB" font-family="Segoe UI, Arial, sans-serif" font-size="24" font-weight="700">Vanilla JS</text>

    <rect x="284" y="518" width="206" height="58" rx="29" fill="#311725" stroke="#673146"/>
    <text x="332" y="555" fill="#FFF7FB" font-family="Segoe UI, Arial, sans-serif" font-size="24" font-weight="700">Media transitions</text>

    <rect x="510" y="518" width="180" height="58" rx="29" fill="#311725" stroke="#673146"/>
    <text x="556" y="555" fill="#FFF7FB" font-family="Segoe UI, Arial, sans-serif" font-size="24" font-weight="700">Responsive</text>
  </g>

  <g>
    <rect x="92" y="608" width="184" height="58" rx="29" fill="#311725" stroke="#673146"/>
    <text x="134" y="645" fill="#FFF7FB" font-family="Segoe UI, Arial, sans-serif" font-size="24" font-weight="700">Single-page flow</text>

    <rect x="296" y="608" width="174" height="58" rx="29" fill="#311725" stroke="#673146"/>
    <text x="349" y="645" fill="#FFF7FB" font-family="Segoe UI, Arial, sans-serif" font-size="24" font-weight="700">Static deploy</text>

    <rect x="490" y="608" width="198" height="58" rx="29" fill="#311725" stroke="#673146"/>
    <text x="532" y="645" fill="#FFF7FB" font-family="Segoe UI, Arial, sans-serif" font-size="24" font-weight="700">Interactive story</text>
  </g>

  <text x="92" y="798" fill="#D7AFBF" font-family="Segoe UI, Arial, sans-serif" font-size="24" font-weight="600">github.com/agarwalujala3-lang/VALENTINE-CHAUDHRAIN</text>
  <text x="92" y="840" fill="#EDD6DF" font-family="Segoe UI, Arial, sans-serif" font-size="22" font-weight="500">Live on GitHub Pages and AWS CloudFront</text>

  <g filter="url(#shadow)">
    <rect x="820" y="138" width="572" height="548" rx="36" fill="#20121D" stroke="#5B3144"/>
    <rect x="860" y="178" width="492" height="300" rx="28" fill="url(#rose)"/>
    <text x="905" y="264" fill="#2A1221" font-family="Segoe UI, Arial, sans-serif" font-size="36" font-weight="800">Will you be my Valentine?</text>
    <text x="905" y="314" fill="#452032" font-family="Segoe UI, Arial, sans-serif" font-size="22" font-weight="600">Interactive button flow with media-based scene changes</text>

    <path d="M1110 360C1110 336 1129 318 1151 318C1172 318 1192 336 1192 360C1192 391 1151 421 1151 421C1151 421 1110 391 1110 360Z" fill="#FFF4F8"/>
    <path d="M1020 388C1020 365 1038 347 1059 347C1081 347 1099 365 1099 388C1099 418 1059 448 1059 448C1059 448 1020 418 1020 388Z" fill="#FFD1E0" opacity="0.92"/>

    <rect x="862" y="520" width="214" height="106" rx="24" fill="#2A1724" stroke="#673146"/>
    <rect x="1114" y="520" width="214" height="106" rx="24" fill="#2A1724" stroke="#673146"/>
    <text x="899" y="565" fill="#FFD3E1" font-family="Segoe UI, Arial, sans-serif" font-size="20" font-weight="700">Smooth</text>
    <text x="893" y="598" fill="#FFF7FB" font-family="Segoe UI, Arial, sans-serif" font-size="30" font-weight="800">Transitions</text>
    <text x="1158" y="565" fill="#FFD3E1" font-family="Segoe UI, Arial, sans-serif" font-size="20" font-weight="700">Choice-based</text>
    <text x="1171" y="598" fill="#FFF7FB" font-family="Segoe UI, Arial, sans-serif" font-size="30" font-weight="800">Interaction</text>
  </g>
</svg>
